<svg width="141" height="132" viewBox="0 0 141 132" fill="none" xmlns="http://www.w3.org/2000/svg">
<g clip-path="url(#clip0_155_9)">
<path d="M69.1058 99.2635H75.5168C75.5168 99.2635 77.4555 99.0522 78.444 97.9766C79.3558 96.997 79.3174 95.1531 79.3174 95.1531C79.3174 95.1531 79.1926 86.5195 83.1851 85.2518C87.1201 84.0034 92.1779 93.5973 97.5332 97.2851C101.583 100.08 104.664 99.4651 104.664 99.4651L118.993 99.2635C118.993 99.2635 126.488 98.8025 122.937 92.8867C122.649 92.4065 120.864 88.5171 112.284 80.5173C103.301 72.143 104.501 73.5067 115.327 59.0341C121.92 50.218 124.559 44.8304 123.734 42.5351C122.947 40.3455 118.1 40.9217 118.1 40.9217L101.977 41.0178C101.977 41.0178 100.787 40.8545 99.8941 41.3923C99.0304 41.9205 98.4737 43.1306 98.4737 43.1306C98.4737 43.1306 95.9208 49.9587 92.5138 55.7593C85.3349 67.9942 82.4557 68.6473 81.2753 67.879C78.5496 66.1119 79.231 60.7627 79.231 56.9693C79.231 45.1089 81.0161 40.1631 75.7376 38.8858C73.9813 38.4632 72.6952 38.1847 68.2037 38.1367C62.4453 38.0791 57.5698 38.1559 54.8154 39.51C52.9727 40.4128 51.5619 42.4199 52.4256 42.5351C53.4909 42.6792 55.9095 43.1882 57.1859 44.936C58.8462 47.1929 58.7791 52.2636 58.7791 52.2636C58.7791 52.2636 59.7292 66.2272 56.5621 67.9654C54.3835 69.1563 51.3987 66.7265 44.9973 55.6152C41.715 49.9299 39.2388 43.6396 39.2388 43.6396C39.2388 43.6396 38.759 42.4679 37.9144 41.8437C36.8779 41.085 35.4287 40.8449 35.4287 40.8449L20.1017 40.9313C20.1017 40.9313 17.7984 40.9986 16.9538 42.0069C16.2052 42.9001 16.8962 44.744 16.8962 44.744C16.8962 44.744 28.9025 72.9209 42.4924 87.1245C54.9593 100.147 69.1058 99.2923 69.1058 99.2923V99.2635Z" fill="white"/>
</g>
<rect x="3.78027" y="3.5" width="133.72" height="125.003" rx="18.5" fill="url(#paint0_linear_155_9)" fill-opacity="0.43" style="mix-blend-mode:hard-light"/>
<rect x="3.78027" y="3.5" width="133.72" height="125.003" rx="18.5" stroke="url(#paint1_linear_155_9)" stroke-width="7"/>
<defs>
<linearGradient id="paint0_linear_155_9" x1="70.6402" y1="132.003" x2="70.6402" y2="0" gradientUnits="userSpaceOnUse">
<stop stop-color="#4BD8FF"/>
<stop offset="1" stop-color="#666666" stop-opacity="0"/>
</linearGradient>
<linearGradient id="paint1_linear_155_9" x1="70.6402" y1="0" x2="70.6402" y2="132.003" gradientUnits="userSpaceOnUse">
<stop stop-color="white"/>
<stop offset="0.528846" stop-color="#74FFC7"/>
<stop offset="1" stop-color="#F7FFFC"/>
</linearGradient>
<clipPath id="clip0_155_9">
<rect width="107.298" height="61.4245" fill="white" transform="translate(16.6084 38.0986)"/>
</clipPath>
</defs>
</svg>
