<svg width="594" height="172" viewBox="0 0 594 172" fill="none" xmlns="http://www.w3.org/2000/svg">
<path fill-rule="evenodd" clip-rule="evenodd" d="M30.889 0C37.0972 0 43.4803 0 49.6886 0C52.2243 0 54.4103 0.531536 57.2084 0.531536C62.1925 0.531536 66.9142 0 71.8983 0.0759338C83.4403 0.0759338 490.735 0.303735 502.277 0.60747C522.301 1.06307 542.849 0 563.048 0C576.076 0.759338 586.394 6.3025 591.378 17.0092C593.302 21.1096 593.739 24.6785 593.739 29.0067C593.477 37.2835 593.127 45.864 593.04 54.1408C593.04 60.6711 593.739 67.0495 593.389 73.6558C593.215 76.5412 593.127 79.2749 593.215 82.0844C593.215 84.1346 593.389 86.1089 593.477 88.1591C594.351 106.687 593.827 126.506 593.827 145.185C593.127 154.753 588.493 161.967 579.312 167.434C576.688 169.029 573.453 170.623 570.13 170.547C568.994 170.547 568.644 170.547 567.595 170.927C566.196 171.383 566.108 171.383 564.622 171.458C563.747 171.458 562.873 171.458 561.999 171.458C534.193 170.547 110.722 171.99 82.7408 171.99H30.889C20.746 171.383 13.401 167.965 6.84305 161.207C4.39474 158.702 1.6841 155.209 1.6841 151.792C1.6841 149.893 1.6841 149.514 0.809704 147.691C0.110185 146.476 0.197625 145.641 0.197625 144.35C0.197625 143.97 0.197625 143.515 0.197625 143.135C0.547385 124.076 0.984584 106.991 0.372505 87.7794C0.110186 78.2877 -0.0646941 68.5682 0.0227457 59.0765C0.0227457 56.2669 0.547385 54.6723 0.984584 52.0906C1.59666 48.6735 0.459945 45.1047 0.197625 41.5358C-0.0646941 36.676 0.110186 31.6644 0.110186 26.8046C0.285065 17.3888 4.83194 11.5419 12.8764 5.6191C18.2977 1.59461 23.8064 0.0759338 30.889 0Z" fill="url(#paint0_radial_123_177)"/>
<path fill-rule="evenodd" clip-rule="evenodd" d="M30.9773 171.003H33.2507C46.1918 171.003 59.1329 171.003 72.074 171.003C75.2218 171.003 78.0199 170.395 81.1677 170.243C83.8784 170.091 85.1025 170.091 87.7257 170.775C89.2997 171.154 91.9228 170.927 93.6716 170.851C121.215 170.547 148.846 170.623 176.39 170.547C193.615 170.547 210.928 170.547 228.154 170.395C235.149 170.395 248.615 167.586 254.211 168.573C257.971 169.256 257.359 170.091 262.343 170.243C267.764 170.395 269.775 169.939 274.847 169.408C282.017 168.649 286.914 170.243 293.909 170.243C321.627 170.243 349.346 170.167 377.064 170.015C381.174 170.015 380.387 169.712 383.884 168.8C388.344 167.586 393.59 169.408 398.225 169.864C401.285 170.167 405.657 170.015 408.892 170.015C417.986 170.015 427.342 170.167 436.436 170.015C446.316 169.864 451.913 167.13 463.28 168.345C466.602 168.725 465.641 168.725 468.701 167.737C473.248 166.295 474.035 169.788 477.095 169.939C478.494 170.015 479.893 170.015 481.205 170.015C493.884 170.015 506.65 170.091 519.329 170.015C522.127 170.015 522.914 169.636 525.449 169.256C529.122 168.725 530.084 170.091 533.581 170.091C536.03 170.091 538.391 170.091 540.839 170.091C547.309 170.091 553.867 170.091 560.338 170.243C563.311 170.319 565.759 169.939 568.382 168.876C572.142 167.434 572.142 170.319 578.35 166.674L578.7 166.522C581.236 165.004 583.509 162.422 585.783 160.448C589.193 157.486 589.893 155.588 591.729 151.867C594.09 146.932 592.778 144.805 592.866 139.87C592.866 122.633 593.303 105.396 592.516 88.1588C592.166 81.4007 591.991 75.0982 592.079 68.3401C592.079 64.8472 592.253 61.2783 592.166 57.7853C592.166 56.5704 592.166 55.3554 592.166 54.1405C592.166 45.7118 592.691 37.3591 592.866 28.9305C592.953 18.2998 588.319 8.42836 576.689 3.7964C572.23 2.04993 568.12 1.21465 563.311 0.910919C558.677 0.910919 396.738 0.910919 392.104 1.06279C387.819 1.13872 384.059 2.12586 382.66 3.41673C380.387 5.54288 378.288 7.74496 376.19 10.023C375.752 10.4786 375.49 10.8582 375.053 11.3138C374.703 11.6935 376.102 12.4529 376.627 12.5288C377.938 12.6807 378.026 12.6047 379.338 12.6047C394.027 12.6047 408.805 12.6047 423.495 12.6047C427.517 12.6047 431.714 12.0732 435.736 11.8454C439.409 11.6176 442.731 11.2379 446.404 10.7064C447.978 10.4786 452.962 9.94704 454.099 11.0101C454.973 11.8454 454.623 12.4529 456.634 12.5288C459.258 12.5288 462.143 12.5288 464.854 12.5288C482.954 12.5288 501.054 12.5288 519.154 12.5288C522.302 12.5288 522.214 11.4657 524.138 11.2379C526.411 11.0101 528.422 12.5288 530.958 12.5288C540.839 12.5288 550.807 12.5288 560.688 12.5288C562.262 12.5288 562.699 12.301 564.098 11.9213C564.098 11.9213 566.109 11.2379 567.595 11.8454C568.994 12.3769 569.519 13.7437 570.831 14.579C573.192 16.0977 574.328 17.1607 575.902 19.211L576.077 19.4388C579.225 23.4633 579.75 26.5765 579.575 31.2844C579.575 31.5882 579.575 31.8919 579.575 32.1956C579.575 36.2201 579.487 39.5612 579.75 43.5857C579.924 45.484 579.75 45.8637 580.536 47.6861C581.761 50.5716 579.924 56.5704 579.662 59.8355C579.4 63.4044 579.662 67.4289 579.662 70.9978C579.662 82.7675 579.662 94.5373 579.662 106.307C579.662 108.813 579.924 111.319 580.187 113.824C580.536 117.014 580.624 119.975 580.187 123.164C579.75 126.278 579.662 129.239 579.662 132.428C579.662 135.997 579.662 139.642 579.662 143.211C579.662 147.008 577.913 151.336 574.94 154.145C571.618 157.259 568.033 158.701 563.223 159.157C563.573 159.157 561.562 159.233 561.212 159.309C557.977 159.385 554.567 159.309 551.244 159.309C546.96 159.385 543.025 159.688 538.828 160.296C537.079 160.524 535.155 161.131 533.931 159.992C532.882 159.081 522.214 159.385 520.203 159.385C425.331 159.385 330.459 159.385 235.586 159.385C219.935 159.385 204.37 159.385 188.719 159.385C156.279 159.385 123.838 159.385 91.3982 159.385C88.8624 159.385 86.2393 159.385 83.7035 159.461C80.5557 159.461 78.9818 160.068 76.0088 160.752C73.2982 161.359 68.3141 160.22 65.2537 159.992H64.9039C60.6194 159.688 56.16 159.461 51.8754 159.461H31.2396C24.4193 159.309 17.9488 155.132 15.7628 149.513C15.1507 148.071 14.9758 146.856 14.9758 145.261C14.9758 132.504 15.0632 119.823 14.9758 107.066C14.9758 105.32 13.9265 105.927 13.0521 105.775C11.6531 105.624 10.2541 105.396 9.0299 104.788C7.10622 103.877 5.35743 102.738 3.60863 101.599C3.34631 101.447 2.82167 100.916 2.47191 101.068C2.12215 101.219 2.12215 101.903 2.12215 102.207C2.12215 114.66 1.94727 127.113 1.68495 139.49C1.68495 140.857 1.51007 142.148 1.51007 143.439C1.51007 145.185 2.12215 145.109 2.99655 146.628C5.00767 149.969 2.55935 151.791 4.04583 155.056C5.00767 157.031 6.49414 158.853 8.06806 160.448C14.4512 166.978 21.4464 170.319 31.2396 170.851L30.9773 171.003ZM14.626 103.346C14.626 99.1692 14.626 95.0688 14.626 90.8924C14.626 87.3995 13.5768 85.1974 12.9647 81.9323C12.4401 79.1986 14.1888 80.1098 14.5386 77.3003C14.7135 75.9335 14.5386 74.3389 14.5386 72.9721C14.5386 57.9372 14.5386 42.9023 14.5386 27.8674C14.7135 22.0964 17.0744 19.5906 21.8836 15.8699C26.6927 12.2251 30.715 12.6807 36.5734 12.5288C38.4971 12.5288 39.2841 12.5288 40.9454 11.7694C43.1314 10.7064 47.2411 11.2379 49.7768 11.4657C53.2744 11.7694 56.2474 12.3769 59.8324 12.5288C63.33 12.6807 67.2648 12.5288 70.8498 12.5288C78.8069 12.5288 86.7639 12.5288 94.7209 12.5288C97.4315 12.5288 99.705 11.6176 102.591 11.3898C105.126 11.2379 107.749 11.4657 110.373 11.3898C112.559 11.3898 113.783 11.3138 115.794 11.9213C116.319 12.0732 117.28 11.9213 118.155 12.0732C119.991 12.3769 120.428 12.4529 122.439 12.4529C133.194 12.4529 143.95 12.4529 154.705 12.4529C161.7 12.4529 167.383 11.2379 174.641 11.4657C182.86 11.7694 188.806 12.6807 197.375 12.0732C201.223 11.8454 204.983 11.3898 208.83 11.0101C212.677 10.6304 213.989 12.2251 218.623 10.7064C221.771 9.71924 221.771 9.79517 225.094 9.56737C227.804 9.4155 229.903 9.33957 232.613 9.03583C235.062 8.80803 238.297 8.20056 240.483 9.4155C242.319 10.4786 242.407 10.6304 244.768 11.2379C245.38 11.3898 246.079 11.5416 246.691 11.6935C251.238 12.6807 269.163 12.301 273.885 12.301C296.445 12.301 319.091 12.301 341.651 12.301C345.761 12.301 348.646 11.3138 352.406 10.8582C357.478 10.2508 355.904 11.6935 359.926 12.2251C363.249 12.6807 366.834 11.8454 370.244 11.4657C375.752 10.8582 380.649 3.94827 381.698 2.42959C382.573 1.21465 381.174 1.06279 379.6 1.06279C368.67 1.06279 357.74 1.51839 346.897 1.29059C332.207 0.986853 317.08 1.13872 302.391 1.06279C230.078 0.834985 157.765 0.53125 85.3649 0.53125C85.1025 0.53125 84.8402 0.53125 84.4905 0.53125C80.3808 0.53125 76.1837 0.683118 72.074 0.683118C67.1774 0.683118 62.2807 1.13872 57.3841 1.13872C54.8484 1.13872 52.4 0.607184 49.8643 0.607184C43.5686 0.607184 37.3604 0.607184 31.0647 0.607184C21.184 0.759051 14.626 3.26487 8.50526 10.1748C7.80574 10.9342 7.10622 11.7694 6.4067 12.6047C2.82167 16.857 1.42264 21.1852 1.3352 26.4247C1.3352 33.1068 0.985436 39.789 1.94727 46.3953C2.29703 48.9011 3.43375 53.2293 2.38447 55.5832C0.985436 58.7725 1.16032 58.9243 1.16032 62.4173C1.16032 70.6941 1.24776 79.0468 1.51007 87.3236C1.59751 90.285 1.68495 93.2464 1.68495 96.2078C1.68495 99.0933 6.66902 102.738 9.29222 103.953C10.0792 104.333 13.8391 104.788 14.1014 104.561C14.3637 104.333 14.626 103.346 14.626 103.042V103.346Z" fill="url(#paint1_radial_123_177)"/>
<path fill-rule="evenodd" clip-rule="evenodd" d="M37.0105 30.9807C62.4555 30.9807 482.254 30.601 507.786 31.9679C509.011 31.9679 513.558 32.2716 514.432 32.1197C515.481 31.8919 515.569 31.1326 517.317 31.2845C518.804 31.4363 520.203 31.9679 521.864 32.1197C523.001 32.1957 524.75 32.1197 525.974 32.1197C536.292 31.816 546.522 30.9807 556.928 30.9807C557.627 30.9807 558.239 31.5123 558.239 32.1197C558.239 37.6629 558.239 43.2061 558.239 48.7492C558.239 50.116 558.152 51.1032 557.802 52.47C557.627 53.1534 557.277 55.3555 557.627 55.887C557.977 56.4185 558.152 56.4185 558.239 57.1779C558.239 57.7094 558.239 58.4687 558.239 59.0003C558.239 64.1638 558.239 69.3273 558.239 74.4908C558.239 76.8447 557.277 77.7559 557.277 80.0339C557.277 83.1472 558.502 85.9568 558.327 89.146C558.064 95.98 558.239 103.042 558.239 109.876C558.239 112.382 558.239 114.812 558.239 117.317C558.239 119.14 556.753 119.595 557.715 121.949C558.327 123.544 558.239 123.468 558.239 125.063V139.946C558.239 140.553 557.627 141.085 556.928 141.085C549.932 141.085 542.937 141.085 536.03 141.085C534.106 141.085 534.631 140.173 533.057 139.87C531.308 139.566 527.985 140.098 526.236 140.401C522.127 141.237 518.804 141.009 514.607 141.009C504.201 141.009 98.1309 141.009 87.7256 141.009C82.5667 141.009 77.4077 141.009 72.2487 141.009C70.8497 141.009 70.4125 141.009 69.1884 140.477C67.0898 139.718 63.8545 140.705 61.756 141.237C59.3951 141.844 59.57 141.085 57.4714 141.009C55.8101 141.009 53.8864 141.009 52.225 141.009C49.9516 141.009 47.5907 141.009 45.3173 141.009H37.0105C36.311 141.009 35.6989 140.477 35.6989 139.87C35.6989 131.821 35.524 124 36.1361 116.027C36.5733 109.344 37.0979 104.409 36.1361 97.6506C35.4366 93.3983 35.7863 87.1717 35.7863 82.6916C35.7863 70.3144 35.7863 57.8613 35.7863 45.4841C35.7863 44.0413 35.9612 44.3451 36.7482 43.282C37.6226 42.143 36.3984 40.3206 36.1361 39.1056C35.7863 37.587 35.8738 36.6758 35.8738 35.1571V32.0438C35.8738 31.4363 36.4859 30.9048 37.1854 30.9048L37.0105 30.9807Z" fill="url(#paint2_radial_123_177)"/>
<path style="mix-blend-mode:multiply" opacity="0.25" fill-rule="evenodd" clip-rule="evenodd" d="M26.4298 22.8559L20.4839 17.6924C17.2486 20.5019 15.6747 23.6152 15.6747 27.7916C15.6747 42.8265 15.6747 57.8613 15.6747 72.8962C15.6747 74.7946 15.7621 77.2245 15.5872 79.0469C15.3249 81.4767 14.1882 81.0211 14.7128 84.1344C15.15 86.4124 15.6747 88.1589 15.6747 90.5129C15.6747 108.737 15.6747 126.961 15.6747 145.185C15.6747 146.628 15.8495 147.691 16.3742 149.134C17.1611 151.108 18.5602 152.93 20.309 154.373L26.4298 149.058C25.293 148.071 24.5935 146.704 24.5935 145.185V26.7285C24.5935 25.2098 25.293 23.843 26.4298 22.8559Z" fill="url(#paint3_linear_123_177)"/>
<path style="mix-blend-mode:multiply" opacity="0.25" fill-rule="evenodd" clip-rule="evenodd" d="M569.345 26.7287V145.185C569.345 146.704 568.646 148.071 567.509 149.058L573.28 154.07C576.165 151.488 578.264 148.375 578.264 144.654C578.264 140.629 578.264 136.529 578.264 132.504C578.264 128.86 578.351 126.734 578.789 123.165C579.575 116.71 578.264 112.534 578.264 106.459C578.264 94.6895 578.264 82.9197 578.264 71.15C578.264 66.8218 578.089 62.1898 578.439 57.9375C578.614 55.7354 579.313 52.3184 578.701 50.2682C578.264 48.7495 578.264 47.7624 578.264 46.2437C578.264 41.6117 578.264 36.9798 578.264 32.3478C578.264 27.4121 578.963 24.4507 575.378 20.1984C574.679 19.3632 573.979 18.6797 573.28 17.9204L567.509 22.932C568.646 23.9192 569.345 25.286 569.345 26.8047V26.7287Z" fill="url(#paint4_linear_123_177)"/>
<path style="mix-blend-mode:screen" opacity="0.5" fill-rule="evenodd" clip-rule="evenodd" d="M563.049 150.653H30.8898C29.141 150.653 27.5671 150.045 26.4304 149.058L20.3096 154.373C23.1076 156.727 26.955 158.322 30.8898 158.398H51.5256C58.6957 158.398 65.6034 159.233 72.8609 159.157C76.1836 159.157 78.8068 158.322 81.6049 158.322C98.5682 158.474 511.284 158.474 528.247 158.474C530.521 158.474 533.144 158.398 535.33 158.474C536.467 158.474 536.729 159.005 538.041 159.081C540.227 159.081 542.675 158.474 544.948 158.474C550.982 158.474 557.015 158.474 563.049 158.474C566.371 158.474 568.47 157.715 571.006 155.892C571.793 155.361 572.492 154.753 573.192 154.146L567.421 149.134C566.284 150.121 564.71 150.729 562.961 150.729L563.049 150.653Z" fill="url(#paint5_linear_123_177)"/>
<path style="mix-blend-mode:multiply" fill-rule="evenodd" clip-rule="evenodd" d="M30.8902 21.2617H563.049C564.798 21.2617 566.372 21.8691 567.508 22.8563L573.279 17.8447C570.569 15.2629 567.508 13.5924 563.049 13.5164H378.988C376.715 13.5164 375.053 13.1368 372.955 13.0608C370.769 12.9849 369.545 13.4405 367.621 13.5164C365.26 13.5164 362.724 13.5164 360.451 13.5164C359.227 13.5164 356.953 13.6683 355.817 13.2886C353.805 12.6052 352.931 12.6052 350.745 12.6052C347.51 12.6812 344.799 13.4405 341.564 13.4405C317.518 13.4405 55.0236 13.4405 30.8902 13.4405C27.2177 13.5164 24.5071 14.5036 21.709 16.6297C21.2718 16.9335 20.9221 17.3131 20.4849 17.6169L26.4308 22.7803C27.5675 21.7932 29.1414 21.1857 30.8902 21.1857V21.2617Z" fill="url(#paint6_linear_123_177)"/>
<path fill-rule="evenodd" clip-rule="evenodd" d="M24.5918 26.7288V145.185C24.5918 146.704 25.2913 148.071 26.428 149.058L36.1339 140.629C36.1339 140.629 35.7841 140.174 35.7841 139.87C35.7841 131.821 35.6092 124 36.2213 116.027C36.6585 109.345 37.1831 104.409 36.2213 97.651C35.5218 93.3987 35.8715 87.1721 35.8715 82.692C35.8715 70.3148 35.8715 57.8617 35.8715 45.4845C35.8715 44.0417 36.0464 44.3455 36.8334 43.2824C37.7078 42.1434 36.4836 40.321 36.2213 39.106C35.8715 37.5874 35.959 36.6761 35.959 35.1575V32.0442C35.959 32.0442 36.1339 31.4367 36.3087 31.2849L26.6029 22.8562C25.4662 23.8433 24.7667 25.2101 24.7667 26.7288H24.5918Z" fill="url(#paint7_linear_123_177)"/>
<path fill-rule="evenodd" clip-rule="evenodd" d="M37.0089 30.9812C62.4539 30.9812 482.253 30.6016 507.785 31.9684C509.009 31.9684 513.556 32.2721 514.43 32.1202C515.48 31.8924 515.567 31.1331 517.316 31.285C518.802 31.4368 520.201 31.9684 521.863 32.1202C522.999 32.1962 524.748 32.1202 525.972 32.1202C536.29 31.8165 546.521 30.9812 556.926 30.9812C557.276 30.9812 557.626 31.1331 557.801 31.285L567.506 22.8563C566.37 21.8692 564.796 21.2617 563.047 21.2617H30.8881C29.1393 21.2617 27.5654 21.8692 26.4287 22.8563L36.1345 31.285C36.1345 31.285 36.6592 30.9812 37.0089 30.9812Z" fill="url(#paint8_linear_123_177)"/>
<path fill-rule="evenodd" clip-rule="evenodd" d="M557.8 52.3944C557.625 53.0778 557.275 55.2799 557.625 55.8115C557.975 56.343 558.15 56.343 558.237 57.1023C558.237 57.6339 558.237 58.3932 558.237 58.9247C558.237 64.0882 558.237 69.2517 558.237 74.4152C558.237 76.7692 557.275 77.6804 557.275 79.9584C557.275 83.0717 558.5 85.8812 558.325 89.0704C558.062 95.9045 558.237 102.966 558.237 109.8C558.237 112.306 558.237 114.736 558.237 117.242C558.237 119.064 556.751 119.52 557.713 121.874C558.325 123.468 558.237 123.393 558.237 124.987V139.87C558.237 139.87 558.062 140.478 557.888 140.629L567.593 149.058C568.73 148.071 569.43 146.704 569.43 145.185V26.7288C569.43 25.2101 568.73 23.8433 567.593 22.8562L557.888 31.2849C557.888 31.2849 558.237 31.7405 558.237 32.0442C558.237 37.5874 558.237 43.1305 558.237 48.6737C558.237 50.0405 558.15 51.0276 557.8 52.3944Z" fill="url(#paint9_linear_123_177)"/>
<path fill-rule="evenodd" clip-rule="evenodd" d="M526.235 140.326C522.125 141.161 518.802 140.933 514.605 140.933C504.2 140.933 98.1294 140.933 87.724 140.933C82.5651 140.933 77.4061 140.933 72.2472 140.933C70.8481 140.933 70.4109 140.933 69.1868 140.402C67.0882 139.642 63.853 140.629 61.7544 141.161C59.3935 141.768 59.5684 141.009 57.4698 140.933C55.8085 140.933 53.8848 140.933 52.2235 140.933C49.95 140.933 47.5891 140.933 45.3157 140.933H37.0089C37.0089 140.933 36.3094 140.781 36.1345 140.629L26.4287 149.058C27.5654 150.045 29.1393 150.653 30.8881 150.653H563.047C564.796 150.653 566.37 150.045 567.506 149.058L557.801 140.629C557.801 140.629 557.276 140.933 556.926 140.933C549.931 140.933 542.936 140.933 536.028 140.933C534.104 140.933 534.629 140.022 533.055 139.718C531.306 139.414 527.984 139.946 526.235 140.25V140.326Z" fill="url(#paint10_linear_123_177)"/>
<path style="mix-blend-mode:screen" fill-rule="evenodd" clip-rule="evenodd" d="M590.94 57.8615C591.115 62.1898 591.814 66.442 591.989 70.7703C592.426 84.894 591.639 93.3226 594 109.952C594 102.587 593.825 95.2969 593.476 88.1591C593.388 86.1089 593.301 84.1346 593.213 82.0844C593.213 79.1989 593.213 76.4653 593.388 73.6558C593.738 67.0495 593.126 60.6711 593.038 54.1408C593.038 45.864 593.476 37.2835 593.738 29.0067C593.738 24.6785 593.301 21.0337 591.377 17.0092C586.306 6.3025 576.075 0.683404 563.047 0C542.848 0 522.212 1.06307 502.276 0.60747C490.734 0.303735 83.4391 0.151868 71.9845 0.0759338C66.913 0.0759338 62.1912 0.531536 57.2946 0.531536C54.4965 0.531536 52.3979 0 49.7747 0C43.5665 0 37.1834 0 30.9752 0C23.8926 0.0759338 18.2964 1.59461 12.8751 5.6191C4.83067 11.5419 0.283804 17.3888 0.108924 26.7287C0.108924 31.5884 -0.0659554 36.6001 0.196364 41.4598C0.371244 44.9528 1.50796 48.5976 0.983322 52.0146C0.546123 54.5964 0.0214844 56.191 0.0214844 59.0005C0.0214844 68.4923 0.0214844 78.2118 0.371244 87.7035C0.633563 95.3728 0.633563 102.738 0.633563 110.028C0.983322 106.383 1.33308 102.738 1.42052 99.0936C1.77028 87.4757 1.07076 75.8578 1.24564 64.3159C1.24564 61.8101 1.5954 59.3043 2.12004 56.8744C2.64468 54.2926 3.86884 51.7868 4.48092 49.2051C4.74324 47.9901 5.09299 46.7752 4.83067 45.5603C4.30604 43.4341 2.4698 41.6117 2.12004 39.4096C1.42052 35.537 1.1582 31.5125 1.77028 27.6399C3.69396 14.7312 13.837 5.77097 28.352 2.35395C35.1723 0.759338 46.452 1.74648 53.7095 2.58175C57.1197 2.96142 57.4694 4.32823 60.967 4.25229C65.7762 4.10042 73.3835 2.12615 78.1052 1.89834C87.199 1.51868 492.133 2.05021 501.227 2.20208C511.282 2.35395 521.338 2.73362 531.393 2.80955C536.64 2.80955 541.974 2.42988 547.22 2.27801C555.089 2.05021 565.232 0 572.14 3.87262C582.283 9.64359 587.792 12.3772 590.503 23.3117C592.251 30.3735 590.677 49.4329 590.94 57.8615Z" fill="url(#paint11_linear_123_177)"/>
<path style="mix-blend-mode:screen" opacity="0.65" fill-rule="evenodd" clip-rule="evenodd" d="M30.889 158.397C26.9542 158.321 23.1068 156.803 20.3088 154.373C18.56 152.93 17.2484 151.108 16.374 149.133C15.8493 147.767 15.6745 146.704 15.6745 145.185C15.6745 133.111 15.6745 120.962 15.6745 108.889C15.4121 114.204 15.0624 119.443 14.8875 124.759C14.7126 130.074 14.6252 135.389 14.6252 140.781C14.6252 143.287 14.2754 145.716 14.6252 148.222C14.8001 149.513 15.4121 150.728 16.1117 151.791C16.986 153.158 18.0353 154.449 19.2595 155.512C20.4836 156.499 21.8827 157.334 23.3692 158.018C25.2054 158.777 27.1291 159.612 29.1402 159.764C33.8619 160.068 38.6711 159.233 43.3929 159.233C48.8141 159.233 54.2354 159.536 59.5692 159.84C62.8045 159.992 66.1272 160.523 69.3625 160.751C72.248 160.903 75.221 161.207 78.1939 160.979C80.0302 160.827 81.6915 159.84 83.5277 159.764C91.4848 159.309 495.194 159.384 503.151 159.384C512.42 159.384 521.689 159.384 530.957 159.612C532.269 159.612 533.581 159.612 534.892 159.916C536.291 160.144 537.515 160.751 538.827 160.903C539.964 161.055 541.013 160.903 542.15 160.675C544.598 160.372 547.046 159.764 549.495 159.612C551.593 159.46 553.604 159.84 555.703 159.764C559.2 159.764 562.785 159.764 566.283 159.309C567.944 159.081 569.518 158.473 570.917 157.638C572.491 156.727 573.89 155.436 575.027 154.145C576.339 152.626 577.475 151.032 578.087 149.285C578.699 147.691 578.699 145.944 578.787 144.198C578.962 138.047 578.699 131.896 578.787 125.746C578.787 124.607 579.137 123.468 579.312 122.329C579.574 120.43 579.924 118.532 579.924 116.634C579.924 115.343 579.312 114.128 579.137 112.837C578.787 110.559 578.525 108.205 578.35 105.927C578.262 104.332 578.35 102.738 578.262 101.219C578.262 99.3209 578.087 97.3466 578 95.4482C578 99.0931 578 102.814 578 106.459C578 112.533 579.399 116.71 578.525 123.164C578.087 126.809 578 128.859 578 132.504C578 136.528 578 140.629 578 144.653C578 148.374 575.901 151.487 573.016 154.069C572.316 154.677 571.529 155.284 570.83 155.816C568.294 157.638 566.108 158.321 562.873 158.397C556.839 158.397 550.806 158.397 544.773 158.397C542.499 158.397 540.051 159.081 537.865 159.005C536.553 159.005 536.291 158.473 535.154 158.397C532.881 158.245 530.345 158.397 528.072 158.397C511.108 158.397 98.3925 158.397 81.4292 158.245C78.6311 158.245 76.0079 159.081 72.6852 159.081C65.5151 159.081 58.52 158.321 51.3499 158.321H30.7141L30.889 158.397Z" fill="url(#paint12_linear_123_177)"/>
<path style="mix-blend-mode:multiply" fill-rule="evenodd" clip-rule="evenodd" d="M32.1997 27.8682C47.0645 25.6661 68.4873 24.3752 99.1786 24.3752C129.87 24.3752 547.045 25.6661 561.91 27.8682L567.594 22.9325C566.457 21.9454 564.883 21.3379 563.134 21.3379H30.8881C29.1393 21.3379 27.5654 21.9454 26.4287 22.9325L32.1123 27.8682H32.1997Z" fill="url(#paint13_radial_123_177)"/>
<path style="mix-blend-mode:screen" fill-rule="evenodd" clip-rule="evenodd" d="M35.6994 84.5141C35.5246 78.3635 35.3497 72.2129 35.2622 66.0622C35.2622 60.8987 35.2622 55.8112 35.2622 50.6477C35.2622 48.6734 35.3497 46.6991 35.1748 44.6489C35.1748 44.2692 34.7376 44.0414 34.5627 43.6618C34.3878 42.9784 34.1255 42.219 34.213 41.5356C34.213 40.7003 34.9125 40.0169 34.9999 39.2576C35.2622 37.663 35.3497 36.0684 35.3497 34.4738C35.3497 33.5626 35.3497 32.6514 35.1748 31.7402C35.0874 31.2086 34.7376 30.753 34.3878 30.3733C32.1144 28.0194 29.5786 25.8173 27.2178 23.5393C30.0158 25.5895 32.7265 27.7916 35.6994 29.6899C36.2241 30.0696 37.011 30.2974 37.7106 30.2974C40.2463 30.5252 42.8695 30.4493 45.4053 30.3733C61.9314 30.3733 78.3701 30.2215 94.8962 30.1455C99.8803 30.1455 500.617 30.2974 505.514 30.1455C507.874 30.0696 510.235 29.2343 512.596 29.3103C514.083 29.3103 516.618 31.2086 518.455 31.1327C519.941 31.1327 521.253 30.0696 522.739 30.0696C524.838 30.0696 526.936 30.0696 529.035 30.2215C531.658 30.3733 534.281 30.9049 536.992 30.9808C541.451 31.0568 545.998 30.8289 550.458 30.753C552.469 30.753 554.48 30.6771 556.491 30.4493C558.939 30.1455 563.574 26.1211 565.585 24.6783C563.311 27.4879 559.726 30.1455 559.551 33.7144C559.289 38.4983 559.114 43.2821 559.027 48.0659C559.027 48.9012 559.027 49.7365 559.114 50.5717C559.289 51.6348 559.814 52.546 559.901 53.6091C559.901 54.1406 559.901 54.7481 559.726 55.2796C559.639 55.7352 559.202 56.1149 559.114 56.5705C558.939 57.3298 558.852 58.0892 558.764 58.8485C558.677 61.5062 558.764 64.2398 558.764 66.8975C558.764 66.8975 558.764 66.8975 558.764 66.9734C558.764 69.707 558.59 72.4407 558.764 75.1743C558.764 76.0095 559.114 76.8448 559.289 77.6042C559.464 78.5154 559.989 79.3506 559.901 80.2618C559.901 82.0842 559.202 83.8307 558.939 85.6531C558.764 86.7921 558.852 87.8552 558.764 88.9942C558.59 93.854 558.327 98.7137 558.152 103.574C558.152 98.1063 558.24 92.639 557.89 87.1718C557.89 86.0328 557.103 83.0714 556.928 81.0971C556.841 79.9581 556.229 78.8191 555.966 77.9838C555.354 76.3133 550.37 68.8718 549.846 67.429C551.419 69.3274 556.578 76.5411 557.016 76.3892C557.278 76.3133 557.453 73.7315 557.54 73.2C557.803 68.644 557.54 63.9361 557.54 59.38C557.54 58.6966 557.54 58.0132 557.54 57.3298C557.103 54.1406 554.13 50.4199 553.693 49.6605C554.305 50.3439 556.578 52.6979 556.753 52.8497C557.103 53.0775 557.19 52.6979 557.19 52.3941C557.278 51.1792 557.453 50.0402 557.54 48.9012C557.977 45.0286 557.803 41.1559 557.715 37.2833C557.715 36.0684 557.628 34.8534 557.278 33.7144C557.103 33.1829 556.753 32.6514 556.229 32.2717C555.704 31.892 555.004 31.5883 554.305 31.5124C552.381 31.2846 550.37 31.3605 548.359 31.4364C545.911 31.4364 543.462 31.5883 541.102 31.6642C537.691 31.8161 534.194 31.892 530.784 32.0439C529.472 32.0439 523.089 32.4236 522.302 32.6514C521.34 32.9551 520.466 33.4107 519.504 33.6385C518.542 33.8663 516.531 33.4107 515.569 33.1829C515.132 33.107 514.87 32.8032 514.432 32.7273C512.946 32.4995 511.459 32.3476 509.886 32.2717C505.251 32.0439 500.617 31.968 495.983 31.8161C491.873 31.6642 91.9232 31.4364 87.8136 31.3605C80.6435 31.2086 73.4734 31.1327 66.3034 31.1327C57.472 31.1327 48.728 30.9808 39.8965 31.2846C37.011 31.3605 36.4864 31.5124 36.1366 34.5497C36.0492 35.8406 36.1366 37.1315 36.2241 38.4223C36.2241 39.0298 36.4864 39.6373 36.6613 40.2447C36.8362 40.9281 37.1859 41.6115 37.3608 42.2949C37.3608 42.7506 37.3608 43.2062 37.1859 43.5858C36.9236 44.1933 36.2241 44.7248 36.2241 45.4082C35.6994 58.3929 35.8743 71.4535 35.6994 84.4382V84.5141Z" fill="url(#paint14_linear_123_177)"/>
<path style="mix-blend-mode:screen" fill-rule="evenodd" clip-rule="evenodd" d="M36.4862 101.371C36.4862 103.042 36.4862 104.712 36.3987 106.307C36.2239 109.041 35.8741 111.774 35.6992 114.584C35.5243 117.393 35.262 120.203 35.1746 123.012C35.1746 126.126 35.1746 129.239 35.1746 132.352C35.1746 133.871 35.1746 135.39 35.1746 136.984C35.1746 138.047 34.9997 139.11 34.8248 140.173C34.7374 140.705 34.6499 141.237 34.3002 141.692C32.6388 143.591 30.7151 145.261 28.8789 147.008C30.7151 145.717 32.3765 144.35 34.3002 143.135C35.0871 142.679 35.9615 142.376 36.8359 142.072C37.448 141.844 37.9726 141.616 38.5847 141.616C43.7437 141.388 48.9901 141.464 54.2365 141.388C55.3732 141.388 56.4225 141.388 57.5592 141.464C58.1712 141.464 58.6959 141.768 59.308 141.92C59.92 142.072 60.5321 142.3 61.2316 142.376C62.3684 142.527 63.5925 142.831 64.7292 142.679C66.0408 142.603 67.265 141.996 68.5766 141.768C69.5384 141.616 70.5877 141.388 71.637 141.388C81.78 141.237 487.763 141.237 497.906 141.237C505.601 141.237 513.296 141.237 520.99 141.388C522.477 141.388 523.963 141.388 525.45 141.464C526.936 141.616 528.335 142.072 529.734 142.224C530.783 142.3 531.833 142.224 532.882 142.072C533.669 141.996 534.369 141.464 535.155 141.464C538.566 141.237 541.976 141.313 545.386 141.313C549.146 141.313 552.993 141.312 556.753 141.464C557.365 141.464 558.065 141.464 558.502 141.768C561.3 143.666 563.748 145.944 566.372 148.071C564.098 145.869 561.65 143.666 559.464 141.388C559.201 141.085 558.939 140.781 558.852 140.401C558.677 134.706 558.764 129.087 558.852 123.392C558.852 122.709 559.114 122.025 559.201 121.266C559.201 120.81 559.376 120.355 559.289 119.975C559.201 119.292 558.677 118.684 558.589 118.001C558.327 114.28 558.327 110.483 558.24 106.763C558.24 110.407 558.24 113.976 558.065 117.621C558.065 117.925 557.802 118.305 557.715 118.608C557.54 119.064 557.365 119.52 557.19 120.051C557.103 120.507 557.015 120.962 557.103 121.418C557.278 122.253 557.802 123.088 557.977 123.924C558.065 124.455 557.977 124.987 557.977 125.518C557.977 130.15 557.977 134.782 557.977 139.414C557.977 139.718 557.977 140.022 557.802 140.249C557.715 140.401 557.54 140.553 557.365 140.705C557.103 140.857 556.841 140.857 556.491 140.857C549.583 140.857 542.675 140.933 535.768 140.857C535.505 140.857 535.33 140.781 535.068 140.705C534.718 140.553 534.456 140.401 534.106 140.173C533.844 140.022 533.582 139.718 533.232 139.566C532.795 139.414 532.357 139.338 531.92 139.338C531.221 139.338 530.521 139.338 529.822 139.49C527.723 139.794 525.537 140.249 523.439 140.477C522.477 140.629 521.515 140.629 520.553 140.705C502.803 140.781 89.2124 140.857 71.4621 140.705C71.0249 140.705 70.5877 140.477 70.2379 140.401C69.7133 140.249 69.1012 140.022 68.5766 139.946C67.9645 139.794 67.265 139.642 66.5655 139.718C65.1664 139.87 63.8548 140.249 62.4558 140.477C61.8437 140.553 61.1442 140.629 60.5321 140.705C60.0075 140.705 59.5703 140.553 59.0456 140.629C58.4336 140.629 57.8215 140.781 57.2094 140.781C54.4988 140.781 51.8756 140.781 49.1649 140.781C45.8422 140.781 42.5195 140.933 39.1968 140.781C38.4973 140.781 37.6229 140.781 37.0983 140.401C36.6611 140.098 36.4862 139.49 36.3987 139.034C36.1364 137.82 36.049 136.605 36.049 135.39C36.049 131.517 36.049 127.644 36.1364 123.772C36.3113 119.064 36.7485 114.356 36.8359 109.724C36.8359 107.978 36.8359 106.155 36.661 104.409C36.661 103.422 36.4862 102.434 36.3113 101.371H36.4862Z" fill="url(#paint15_linear_123_177)"/>
<path style="mix-blend-mode:screen" fill-rule="evenodd" clip-rule="evenodd" d="M37.0105 30.9807C62.4555 30.9807 482.254 30.601 507.786 31.9679C509.011 31.9679 513.558 32.2716 514.432 32.1197C515.481 31.8919 515.569 31.1326 517.317 31.2845C518.804 31.4363 520.203 31.9679 521.864 32.1197C523.001 32.1957 524.75 32.1197 525.974 32.1197C536.292 31.816 546.522 30.9807 556.928 30.9807C557.627 30.9807 558.239 31.5123 558.239 32.1197C558.239 37.6629 558.239 43.2061 558.239 48.7492C558.239 50.116 558.152 51.1032 557.802 52.47C557.627 53.1534 557.277 55.3555 557.627 55.887C557.977 56.4185 558.152 56.4185 558.239 57.1779C558.239 57.7094 558.239 58.4687 558.239 59.0003C558.239 64.1638 558.239 69.3273 558.239 74.4908C558.239 76.8447 557.277 77.7559 557.277 80.0339C557.277 83.1472 558.502 85.9568 558.327 89.146C558.064 95.98 558.239 103.042 558.239 109.876C558.239 112.382 558.239 114.812 558.239 117.317C558.239 119.14 556.753 119.595 557.715 121.949C558.327 123.544 558.239 123.468 558.239 125.063V139.946C558.239 140.553 557.627 141.085 556.928 141.085C549.932 141.085 542.937 141.085 536.03 141.085C534.106 141.085 534.631 140.173 533.057 139.87C531.308 139.566 527.985 140.098 526.236 140.401C522.127 141.237 518.804 141.009 514.607 141.009C504.201 141.009 98.1309 141.009 87.7256 141.009C82.5667 141.009 77.4077 141.009 72.2487 141.009C70.8497 141.009 70.4125 141.009 69.1884 140.477C67.0898 139.718 63.8545 140.705 61.756 141.237C59.3951 141.844 59.57 141.085 57.4714 141.009C55.8101 141.009 53.8864 141.009 52.225 141.009C49.9516 141.009 47.5907 141.009 45.3173 141.009H37.0105C36.311 141.009 35.6989 140.477 35.6989 139.87C35.6989 131.821 35.524 124 36.1361 116.027C36.5733 109.344 37.0979 104.409 36.1361 97.6506C35.4366 93.3983 35.7863 87.1717 35.7863 82.6916C35.7863 70.3144 35.7863 57.8613 35.7863 45.4841C35.7863 44.0413 35.9612 44.3451 36.7482 43.282C37.6226 42.143 36.3984 40.3206 36.1361 39.1056C35.7863 37.587 35.8738 36.6758 35.8738 35.1571V32.0438C35.8738 31.4363 36.4859 30.9048 37.1854 30.9048L37.0105 30.9807Z" fill="url(#paint16_radial_123_177)"/>
<defs>
<radialGradient id="paint0_radial_123_177" cx="0" cy="0" r="1" gradientUnits="userSpaceOnUse" gradientTransform="translate(297.056 85.957) scale(429.242 372.759)">
<stop stop-color="#4B5944"/>
<stop offset="1" stop-color="#333B31"/>
</radialGradient>
<radialGradient id="paint1_radial_123_177" cx="0" cy="0" r="1" gradientUnits="userSpaceOnUse" gradientTransform="translate(303.702 -86.7167) scale(467.278 405.79)">
<stop stop-color="#6E815E"/>
<stop offset="1" stop-color="#5E6542"/>
</radialGradient>
<radialGradient id="paint2_radial_123_177" cx="0" cy="0" r="1" gradientUnits="userSpaceOnUse" gradientTransform="translate(296.969 162.118) scale(357.716 310.645)">
<stop stop-color="#C5FF59"/>
<stop offset="1" stop-color="#37B518"/>
</radialGradient>
<linearGradient id="paint3_linear_123_177" x1="14.5379" y1="86.1087" x2="26.4298" y2="86.1087" gradientUnits="userSpaceOnUse">
<stop stop-color="#C2B0AF"/>
<stop offset="1" stop-color="#807372"/>
</linearGradient>
<linearGradient id="paint4_linear_123_177" x1="567.509" y1="85.9571" x2="579.138" y2="85.9571" gradientUnits="userSpaceOnUse">
<stop stop-color="#807372"/>
<stop offset="1" stop-color="#C2B0AF"/>
</linearGradient>
<linearGradient id="paint5_linear_123_177" x1="296.794" y1="159.157" x2="296.794" y2="149.058" gradientUnits="userSpaceOnUse">
<stop stop-color="#BFB39C"/>
<stop offset="1"/>
</linearGradient>
<linearGradient id="paint6_linear_123_177" x1="296.97" y1="22.8563" x2="296.97" y2="12.6812" gradientUnits="userSpaceOnUse">
<stop stop-color="#8C7F7D"/>
<stop offset="1" stop-color="white"/>
</linearGradient>
<linearGradient id="paint7_linear_123_177" x1="24.5918" y1="85.9572" x2="37.0082" y2="85.9572" gradientUnits="userSpaceOnUse">
<stop stop-color="#449C15"/>
<stop offset="1" stop-color="#68BD00"/>
</linearGradient>
<linearGradient id="paint8_linear_123_177" x1="296.968" y1="32.1962" x2="296.968" y2="21.2617" gradientUnits="userSpaceOnUse">
<stop stop-color="#68BD00"/>
<stop offset="1" stop-color="#449C15"/>
</linearGradient>
<linearGradient id="paint9_linear_123_177" x1="557.275" y1="85.9572" x2="569.342" y2="85.9572" gradientUnits="userSpaceOnUse">
<stop stop-color="#68BD00"/>
<stop offset="1" stop-color="#449C15"/>
</linearGradient>
<linearGradient id="paint10_linear_123_177" x1="296.968" y1="150.653" x2="296.968" y2="139.718" gradientUnits="userSpaceOnUse">
<stop stop-color="#449C15"/>
<stop offset="1" stop-color="#68BD00"/>
</linearGradient>
<linearGradient id="paint11_linear_123_177" x1="297.055" y1="110.104" x2="297.055" y2="-0.0759369" gradientUnits="userSpaceOnUse">
<stop/>
<stop offset="1" stop-color="#BFB39C"/>
</linearGradient>
<linearGradient id="paint12_linear_123_177" x1="297.318" y1="160.979" x2="297.318" y2="95.3723" gradientUnits="userSpaceOnUse">
<stop stop-color="#BFB39C"/>
<stop offset="1"/>
</linearGradient>
<radialGradient id="paint13_radial_123_177" cx="0" cy="0" r="1" gradientUnits="userSpaceOnUse" gradientTransform="translate(311.045 185.051) scale(481.006 417.712)">
<stop stop-color="white"/>
<stop offset="1" stop-color="#CF7474"/>
</radialGradient>
<linearGradient id="paint14_linear_123_177" x1="296.358" y1="103.574" x2="296.358" y2="23.5393" gradientUnits="userSpaceOnUse">
<stop/>
<stop offset="1" stop-color="#FFBFBF"/>
</linearGradient>
<linearGradient id="paint15_linear_123_177" x1="297.581" y1="148.071" x2="297.581" y2="101.371" gradientUnits="userSpaceOnUse">
<stop stop-color="#FFBFBF"/>
<stop offset="1"/>
</linearGradient>
<radialGradient id="paint16_radial_123_177" cx="0" cy="0" r="1" gradientUnits="userSpaceOnUse" gradientTransform="translate(295.395 337.677) scale(357.716 310.645)">
<stop stop-color="#FFBFBF"/>
<stop offset="0.17" stop-color="#C59393"/>
<stop offset="0.4" stop-color="#7F5F5F"/>
<stop offset="0.6" stop-color="#483636"/>
<stop offset="0.78" stop-color="#211818"/>
<stop offset="0.92" stop-color="#080606"/>
<stop offset="1"/>
</radialGradient>
</defs>
</svg>
