<svg width="189" height="178" viewBox="0 0 189 178" fill="none" xmlns="http://www.w3.org/2000/svg">
<g filter="url(#filter0_d_134_553)">
<rect x="4" width="180.984" height="169.773" rx="22" fill="url(#paint0_linear_134_553)"/>
<rect x="4.5" y="0.5" width="179.984" height="168.773" rx="21.5" stroke="url(#paint1_linear_134_553)"/>
</g>
<g clip-path="url(#clip0_134_553)">
<path d="M92.519 127.666H100.764C100.764 127.666 103.258 127.395 104.529 126.011C105.702 124.751 105.652 122.38 105.652 122.38C105.652 122.38 105.492 111.276 110.627 109.645C115.688 108.04 122.193 120.379 129.08 125.122C134.289 128.716 138.252 127.926 138.252 127.926L156.68 127.666C156.68 127.666 166.321 127.073 161.754 119.465C161.383 118.847 159.087 113.845 148.052 103.556C136.499 92.7857 138.042 94.5396 151.965 75.926C160.445 64.5873 163.84 57.6581 162.778 54.7061C161.766 51.89 155.532 52.6311 155.532 52.6311L134.795 52.7546C134.795 52.7546 133.265 52.5446 132.117 53.2363C131.006 53.9156 130.29 55.4719 130.29 55.4719C130.29 55.4719 127.007 64.2538 122.625 71.7141C113.392 87.4499 109.689 88.2898 108.171 87.3017C104.665 85.029 105.541 78.1492 105.541 73.2704C105.541 58.0163 107.837 51.6553 101.048 50.0126C98.7895 49.4691 97.1355 49.1109 91.3587 49.0492C83.9526 48.9751 77.6821 49.0739 74.1396 50.8154C71.7696 51.9765 69.9551 54.5579 71.066 54.7061C72.4362 54.8914 75.5467 55.546 77.1884 57.794C79.3238 60.6966 79.2374 67.2182 79.2374 67.2182C79.2374 67.2182 80.4594 85.1772 76.3861 87.4128C73.5841 88.9444 69.7453 85.8195 61.5122 71.5288C57.2907 64.2168 54.1061 56.1266 54.1061 56.1266C54.1061 56.1266 53.4889 54.6197 52.4027 53.8168C51.0696 52.8411 49.2058 52.5323 49.2058 52.5323L29.4932 52.6434C29.4932 52.6434 26.5308 52.7299 25.4446 54.0268C24.4818 55.1755 25.3705 57.547 25.3705 57.547C25.3705 57.547 40.8122 93.7862 58.2905 112.054C74.3247 128.803 92.519 127.703 92.519 127.703V127.666Z" fill="white"/>
</g>
<rect x="7.5" y="3.5" width="173.984" height="162.773" rx="18.5" fill="url(#paint2_linear_134_553)" fill-opacity="0.43" style="mix-blend-mode:hard-light"/>
<rect x="7.5" y="3.5" width="173.984" height="162.773" rx="18.5" stroke="url(#paint3_linear_134_553)" stroke-width="7"/>
<defs>
<filter id="filter0_d_134_553" x="0" y="0" width="188.984" height="177.772" filterUnits="userSpaceOnUse" color-interpolation-filters="sRGB">
<feFlood flood-opacity="0" result="BackgroundImageFix"/>
<feColorMatrix in="SourceAlpha" type="matrix" values="0 0 0 0 0 0 0 0 0 0 0 0 0 0 0 0 0 0 127 0" result="hardAlpha"/>
<feOffset dy="4"/>
<feGaussianBlur stdDeviation="2"/>
<feComposite in2="hardAlpha" operator="out"/>
<feColorMatrix type="matrix" values="0 0 0 0 0 0 0 0 0 0 0 0 0 0 0 0 0 0 0.25 0"/>
<feBlend mode="normal" in2="BackgroundImageFix" result="effect1_dropShadow_134_553"/>
<feBlend mode="normal" in="SourceGraphic" in2="effect1_dropShadow_134_553" result="shape"/>
</filter>
<linearGradient id="paint0_linear_134_553" x1="94.4922" y1="0" x2="94.4922" y2="169.773" gradientUnits="userSpaceOnUse">
<stop stop-color="#00C37F"/>
<stop offset="1" stop-color="#078DAC"/>
</linearGradient>
<linearGradient id="paint1_linear_134_553" x1="94.4922" y1="169.773" x2="94.4922" y2="0" gradientUnits="userSpaceOnUse">
<stop stop-color="white" stop-opacity="0.72"/>
<stop offset="1" stop-color="#9FB6FF" stop-opacity="0.69"/>
</linearGradient>
<linearGradient id="paint2_linear_134_553" x1="94.4922" y1="169.773" x2="94.4922" y2="0" gradientUnits="userSpaceOnUse">
<stop stop-color="#4BD8FF"/>
<stop offset="1" stop-color="#666666" stop-opacity="0"/>
</linearGradient>
<linearGradient id="paint3_linear_134_553" x1="94.4922" y1="0" x2="94.4922" y2="169.773" gradientUnits="userSpaceOnUse">
<stop stop-color="white"/>
<stop offset="0.528846" stop-color="#74FFC7"/>
<stop offset="1" stop-color="#F7FFFC"/>
</linearGradient>
<clipPath id="clip0_134_553">
<rect width="138" height="79" fill="white" transform="translate(25 49)"/>
</clipPath>
</defs>
</svg>
